<svg xmlns="http://www.w3.org/2000/svg" viewBox="0 0 24 24"><path d="M5.115 2.86c-.345 0-.654.164-.883.393-.23.23-.393.538-.393.884v1.277c0 .255-.12.5-.295.68-.176.18-.405.278-.555.278a.32.32 0 0 0 0 .64c.15 0 .379.098.555.278s.295.425.295.68v1.276c0 .346.163.654.393.884s.538.393.883.393h.32a.32.32 0 0 0 .32-.319.32.32 0 0 0-.32-.32h-.32a.66.66 0 0 1-.432-.205c-.13-.13-.206-.3-.206-.433V7.97c0-.448-.2-.842-.476-1.125-.062-.063-.14-.1-.208-.152.068-.053.146-.09.208-.152.276-.283.476-.678.476-1.126V4.137a.66.66 0 0 1 .206-.432c.13-.13.3-.206.432-.206h.32a.32.32 0 0 0 .32-.32.32.32 0 0 0-.32-.318Zm4.79 0a.32.32 0 0 0-.32.32.32.32 0 0 0 .32.319h.32a.66.66 0 0 1 .432.206c.13.13.206.3.206.432v1.277c0 .448.2.843.476 1.126.062.063.14.1.208.152-.068.052-.146.089-.208.152a1.62 1.62 0 0 0-.476 1.125v1.277c0 .129-.077.3-.207.43-.13.131-.3.209-.431.209h-.32a.32.32 0 0 0-.32.32.32.32 0 0 0 .32.318h.32c.347 0 .655-.165.884-.395.23-.23.392-.537.392-.882V7.97c0-.254.12-.499.295-.679.176-.18.405-.279.555-.279a.32.32 0 0 0 0-.639c-.15 0-.379-.098-.555-.279a1 1 0 0 1-.295-.679V4.137c0-.346-.163-.654-.393-.884s-.538-.392-.883-.392ZM5.753 7.33a.65.65 0 0 0-.476.208.65.65 0 0 0-.16.431c0 .15.05.305.16.43.058.066.162.073.248.11a.32.32 0 0 0 .228.098.65.65 0 0 0 .48-.205.64.64 0 0 0 .161-.433.64.64 0 0 0-.16-.432.65.65 0 0 0-.481-.207m1.915 0a.65.65 0 0 0-.475.208.64.64 0 0 0-.16.431c0 .15.049.305.16.43a.65.65 0 0 0 .475.208.65.65 0 0 0 .48-.205.64.64 0 0 0 .162-.433.64.64 0 0 0-.161-.432.65.65 0 0 0-.48-.207m1.916 0a.65.65 0 0 0-.476.208.64.64 0 0 0-.16.431c0 .15.05.305.16.43a.65.65 0 0 0 .476.208.32.32 0 0 0 .228-.097c.088-.036.193-.042.252-.108a.64.64 0 0 0 .162-.433.64.64 0 0 0-.162-.432.65.65 0 0 0-.48-.207" fill="#eed49f"/><g fill="none" stroke-linecap="round" stroke-linejoin="round" stroke-width=".625"><path stroke="#7dc4e4" d="M12.151 16.876h2.187m.87-1.25-2.088 3.437"/><path stroke="#8aadf4" d="m14.338 13.126.938 1.562m2.187.313h-4.03"/><path stroke="#7dc4e4" d="M19.338 13.126 18.401 15m.631 1.625-1.881-3.5"/><path stroke="#8aadf4" d="m21.526 17.513-2.188-.012m-.862 1.25 2.112-3.438"/><path stroke="#7dc4e4" d="m19.651 21.25-1.563-1.874m-1.856.012 4.05-.012"/><path stroke="#8aadf4" d="m14.338 21.25.938-1.874m-.606-1.563 1.856 3.438"/></g><path d="m17.824 4.386-2.47 1.971 2.47 1.971v-1.15h.928v2.058h1.64V7.177h.006v-1.64h-2.574ZM6.77 19.953l2.468-1.971L6.77 16.01v1.152h-.928v-2.06H4.2v2.06h-.006V18.8H6.77z" fill="#fff"/></svg>
